<svg id="Layer_1" data-name="Layer 1" xmlns="http://www.w3.org/2000/svg" viewBox="0 0 570.24 518.4"><defs><style>.cls-1,.cls-2{fill:none;}.cls-2{stroke:#000;stroke-miterlimit:10;}.cls-3{fill:#cb592a;}</style></defs><title>Untitled-4</title><path class="cls-1" d="M367.47,253.15a24.86,24.86,0,0,1-3.9,6.74l-77.42-77.43c-.5-.49-1-1-1.51-1.37l-.08-.07a16.64,16.64,0,0,0-5.86-3.19,6.61,6.61,0,0,0-7,1.83l-14.47,14.47q-6,6,.87,13L334.3,283.3a6.16,6.16,0,0,1,1.66,4.38c0,.07,0,.15,0,.22L296.89,327l-.34.13a22.21,22.21,0,0,1-2.95.8,18.23,18.23,0,0,1-9.93-.86q-5.07-1.83-10.48-7.24l-29.53-29.53,2.83-2.84a6,6,0,0,1-4.05,1.62l-37.91-37.91a3.53,3.53,0,0,0-1.66-1l-.16-.45a22.5,22.5,0,0,1-.8-2.94,18.26,18.26,0,0,1,.86-9.94,25.72,25.72,0,0,1,4.57-7.57l77.5,77.5c.49.49,1,1,1.5,1.38l.08.06a16.59,16.59,0,0,0,5.86,3.2,6.64,6.64,0,0,0,7-1.83l14.47-14.47q6-6-.87-13l-76.22-76.22a6.15,6.15,0,0,1-1.66-4.38c0-.07,0-.14,0-.21l39.07-39.07.33-.13a23.85,23.85,0,0,1,2.95-.8,18.28,18.28,0,0,1,9.94.87q5.07,1.83,10.47,7.23l29.54,29.54-.57.57-3,3a6.21,6.21,0,0,1,4.38-1.66c.38,0,.78,0,1.18,0L366.45,238c.11.11.22.19.33.29.27.64.53,1.28.75,1.93a22.21,22.21,0,0,1,.8,3A18.26,18.26,0,0,1,367.47,253.15Z"/><path class="cls-1" d="M233.56,202.75,210,226.31c-.9.9-1.73,1.79-2.48,2.68l26.13-26.13Z"/><path class="cls-1" d="M337.43,286.42l22.81-22.81c.92-.92,1.75-1.83,2.52-2.73l-25.43,25.43Z"/><path class="cls-2" d="M405.79,242.37a56.33,56.33,0,0,0-3.13-13.4c-.38-1.07-.81-2.11-1.26-3.13A47.38,47.38,0,0,0,393.8,214a3.73,3.73,0,0,1-1.22,2.21L370.77,238c-1.33,1.34-2.66,1.42-4,.29.27.64.53,1.28.75,1.93a22.21,22.21,0,0,1,.8,3,18.26,18.26,0,0,1-.86,9.94,24.86,24.86,0,0,1-3.9,6.74l.09.09-.91.91c-.76.9-1.6,1.81-2.51,2.73l-22.81,22.81,26.24,26.24-1.52,1.52.11.09,28.84-28.85a49.51,49.51,0,0,0,8.2-10.8c.31-.55.61-1.12.91-1.68.68-1.35,1.33-2.73,1.9-4.15a53.17,53.17,0,0,0,3.68-14.36c.19-1.78.3-3.58.32-5.39A54.84,54.84,0,0,0,405.79,242.37Z"/><path class="cls-2" d="M207.7,176.5l-28.2,27.24a49.51,49.51,0,0,0-8.2,10.8c-.31.55-.61,1.12-.91,1.68-.68,1.35-1.33,2.73-1.9,4.15a53.17,53.17,0,0,0-3.68,14.36c-.19,1.78-.3,3.58-.32,5.39a57,57,0,0,0,.33,6.68A56.33,56.33,0,0,0,168,260.2c.38,1.07.81,2.11,1.26,3.13a47.38,47.38,0,0,0,7.6,11.81,3.73,3.73,0,0,1,1.22-2.21l21.81-21.8c1.33-1.34,2.66-1.42,4-.29-.27-.64-.53-1.28-.75-1.93a22.21,22.21,0,0,1-.8-2.95,18.26,18.26,0,0,1,.86-9.94,24.86,24.86,0,0,1,3.9-6.74l-.09-.09.91-.91c.76-.9,1.6-1.81,2.51-2.73l22.81-22.81L206.94,176.5"/><path d="M334.3,283.3a6.19,6.19,0,0,1,1.66,4.38l1.36-1.36Z"/><path d="M337.43,286.42,336,287.89c0-.07,0-.15,0-.22l1.36-1.36Z"/><path d="M243.66,290.26l-.18.18-1.37-1.37c.12,0,.22,0,.33,0Z"/><path d="M363.67,312.66l-38.22,38.22a49.3,49.3,0,0,1-11,8.34c-1.12.62-2.27,1.2-3.44,1.73s-2.07.88-3.13,1.26a56.87,56.87,0,0,1-20.08,3.46c-1.82,0-3.61-.13-5.39-.32A53.7,53.7,0,0,1,268,361.67c-1.42-.58-2.8-1.22-4.14-1.9l-1.69-.91a50,50,0,0,1-10.8-8.2l-73.2-73.2c-1.44-1.44-1.36-2.95.22-4.53l21.81-21.81a2.81,2.81,0,0,1,2.66-1,3.53,3.53,0,0,1,1.66,1L242.44,289c-.11,0-.21,0-.33,0l1.37,1.37.18-.18,29.53,29.53q5.4,5.4,10.48,7.24a18.23,18.23,0,0,0,9.93.86,22.21,22.21,0,0,0,2.95-.8l.34-.13L336,287.89l1.48-1.47Z"/><path d="M284.64,181.08l-.08-.06a16.55,16.55,0,0,0-5.87-3.2,6.65,6.65,0,0,0-7,1.83L257.2,194.12q-6,6,.87,13l76.22,76.22h0l3,3,25.43-25.43c.28-.34.55-.67.81-1l-77.42-77.42C285.65,182,285.14,181.5,284.64,181.08Z"/><path d="M363.66,260l-.1-.1-.81,1Z"/><polygon points="334.3 283.3 334.3 283.3 337.32 286.32 334.3 283.3"/><path class="cls-3" d="M236.68,205.87a6.19,6.19,0,0,1-1.66-4.38l-1.36,1.36Z"/><path class="cls-3" d="M235,201.28c0,.07,0,.14,0,.21l-1.36,1.36-.1-.1Z"/><path d="M393.8,214a3.73,3.73,0,0,1-1.22,2.21L370.77,238c-1.33,1.34-2.66,1.42-4,.29-.11-.1-.22-.18-.33-.29l-68.66-68.66q-5.4-5.4-10.47-7.23a18.28,18.28,0,0,0-9.94-.87,23.85,23.85,0,0,0-2.95.8l-.33.13L235,201.28l-1.47,1.47-26.25-26.24,38.23-38.22a49,49,0,0,1,10-7.75,45.31,45.31,0,0,1,4.48-2.33c1-.45,2.07-.88,3.14-1.26a56.87,56.87,0,0,1,20.08-3.46c1.81,0,3.6.13,5.39.33A53.15,53.15,0,0,1,303,127.49q2.13.87,4.14,1.91c.57.29,1.13.6,1.69.9a50.07,50.07,0,0,1,10.8,8.2l73.2,73.2A2.86,2.86,0,0,1,393.8,214Z"/><path d="M286.34,308.08l.08.06a16.55,16.55,0,0,0,5.87,3.2,6.65,6.65,0,0,0,7-1.83L313.78,295q6-6-.87-13l-76.22-76.22-3-3L207.54,229l-.18.23,77.5,77.5A17.41,17.41,0,0,0,286.34,308.08Z"/><path class="cls-3" d="M207.32,229.19l0,0,.18-.23Z"/><path d="M178.18,277.47c-1.44-1.44-1.36-3,.22-4.53l21.81-21.81a2.81,2.81,0,0,1,2.66-1l-.16-.45a22.5,22.5,0,0,1-.8-2.94,18.26,18.26,0,0,1,.86-9.94,25.72,25.72,0,0,1,4.57-7.57l0,0,.2-.2c.76-.89,1.58-1.78,2.48-2.68l-2.63,2.63L181.12,202.7l.17-.17-.1-.1-2.06,2.06a49.67,49.67,0,0,0-8.2,10.8c-.31.56-.61,1.12-.91,1.69q-1,2-1.91,4.14a53.68,53.68,0,0,0-3.67,14.37c-.19,1.78-.3,3.57-.32,5.39a55,55,0,0,0,.33,6.68,56.42,56.42,0,0,0,3.12,13.4c.39,1.06.81,2.1,1.27,3.13a48.24,48.24,0,0,0,10.07,14.47l38.22,38.22.18-.18Z"/><rect class="cls-1" width="570.24" height="518.4"/></svg>