<?xml version="1.0" encoding="utf-8"?>
<!-- Generator: Adobe Illustrator 23.0.3, SVG Export Plug-In . SVG Version: 6.00 Build 0)  -->
<svg version="1.1" id="Layer_1" xmlns="http://www.w3.org/2000/svg" xmlns:xlink="http://www.w3.org/1999/xlink" x="0px" y="0px"
	 viewBox="0 0 595.28 841.89" style="enable-background:new 0 0 595.28 841.89;" xml:space="preserve">
<style type="text/css">
	.st0{fill:#CB592A;}
	.st1{fill:none;}
	.st2{fill:none;stroke:#CC5A29;stroke-miterlimit:10;}
</style>
<g>
	<path class="st0" d="M103.77,588.88v-39.83h8.48v39.83H103.77z"/>
	<path class="st0" d="M163.96,549.05v39.83h-9.46l-12.51-18.56c-1.07-1.64-1.97-3.06-2.71-4.27c-0.74-1.21-1.46-2.57-2.16-4.09
		v26.92h-8.48v-39.83h9.34l13.62,20.4c0.16,0.25,0.53,0.81,1.11,1.69c0.57,0.88,1.1,1.71,1.57,2.49c0.47,0.78,0.87,1.54,1.2,2.27
		v-26.86H163.96z"/>
	<path class="st0" d="M215.61,549.05v39.83h-9.46l-12.51-18.56c-1.07-1.64-1.97-3.06-2.71-4.27c-0.74-1.21-1.46-2.57-2.16-4.09
		v26.92h-8.48v-39.83h9.33l13.62,20.4c0.16,0.25,0.53,0.81,1.11,1.69s1.1,1.71,1.57,2.49c0.47,0.78,0.87,1.54,1.2,2.27v-26.86
		H215.61z"/>
	<path class="st0" d="M238.86,587.09c-2.97-1.76-5.21-4.21-6.73-7.34c-1.51-3.13-2.27-6.77-2.27-10.91c0-4.59,0.92-8.43,2.76-11.52
		c1.84-3.09,4.29-5.39,7.34-6.88c3.05-1.5,6.44-2.24,10.16-2.24c4.26,0,7.87,0.88,10.84,2.64c2.97,1.76,5.2,4.21,6.69,7.34
		c1.49,3.13,2.24,6.77,2.24,10.91c0,4.59-0.91,8.43-2.73,11.52c-1.82,3.09-4.26,5.39-7.31,6.88c-3.05,1.5-6.44,2.24-10.17,2.24
		C245.44,589.74,241.83,588.86,238.86,587.09z M255.87,580.98c1.7-1.08,2.97-2.64,3.81-4.67c0.84-2.03,1.26-4.41,1.26-7.16
		c0-4.34-0.92-7.73-2.76-10.17s-4.52-3.66-8.05-3.66c-3.68,0-6.49,1.2-8.41,3.6c-1.92,2.4-2.89,5.68-2.89,9.86
		c0,4.34,0.92,7.73,2.76,10.17c1.84,2.44,4.54,3.66,8.11,3.66C252.12,582.61,254.17,582.06,255.87,580.98z"/>
	<path d="M302.39,584.94l3.93-6.08c3.81,2.42,7.53,3.63,11.18,3.63c2.33,0,4.17-0.37,5.5-1.11c1.33-0.74,2-1.84,2-3.32
		c0-0.9-0.21-1.65-0.64-2.24c-0.43-0.59-1.19-1.17-2.27-1.72c-1.09-0.55-2.71-1.26-4.88-2.12l-1.41-0.55
		c-2.62-1.02-4.73-2.01-6.33-2.95c-1.6-0.94-2.87-2.15-3.81-3.63c-0.94-1.47-1.41-3.34-1.41-5.59c0-2.5,0.72-4.58,2.15-6.24
		c1.43-1.66,3.28-2.88,5.53-3.66c2.25-0.78,4.65-1.17,7.19-1.17c2.29,0,4.66,0.38,7.09,1.14c2.44,0.76,4.76,1.88,6.97,3.35
		l-3.97,6.02c-1.95-1.19-3.68-2.05-5.19-2.58c-1.51-0.53-3.13-0.8-4.88-0.8c-1.95,0-3.43,0.33-4.43,0.98c-1,0.66-1.5,1.54-1.5,2.64
		c0,0.7,0.2,1.32,0.61,1.88c0.41,0.55,1.14,1.11,2.2,1.66s2.58,1.2,4.58,1.94l1.34,0.49c2.6,0.98,4.71,1.91,6.32,2.77
		c1.61,0.86,2.96,2.09,4.06,3.69c1.1,1.6,1.65,3.67,1.65,6.21c0,2.66-0.7,4.91-2.09,6.73c-1.39,1.82-3.29,3.19-5.68,4.09
		c-2.39,0.9-5.11,1.35-8.14,1.35C311.91,589.74,306.69,588.14,302.39,584.94z"/>
	<path d="M378.25,549.05v7.44h-12.65v32.39h-8.48v-32.39H344.4v-7.44H378.25z"/>
	<path d="M397.93,587.09c-2.97-1.76-5.21-4.21-6.73-7.34c-1.52-3.13-2.27-6.77-2.27-10.91c0-4.59,0.92-8.43,2.76-11.52
		s4.29-5.39,7.34-6.88c3.05-1.5,6.44-2.24,10.16-2.24c4.26,0,7.87,0.88,10.84,2.64c2.97,1.76,5.2,4.21,6.69,7.34
		c1.49,3.13,2.24,6.77,2.24,10.91c0,4.59-0.91,8.43-2.73,11.52c-1.82,3.09-4.26,5.39-7.31,6.88s-6.44,2.24-10.16,2.24
		C404.51,589.74,400.9,588.86,397.93,587.09z M414.94,580.98c1.7-1.08,2.97-2.64,3.81-4.67c0.84-2.03,1.26-4.41,1.26-7.16
		c0-4.34-0.92-7.73-2.76-10.17s-4.52-3.66-8.05-3.66c-3.68,0-6.49,1.2-8.41,3.6c-1.92,2.4-2.89,5.68-2.89,9.86
		c0,4.34,0.92,7.73,2.76,10.17c1.84,2.44,4.54,3.66,8.11,3.66C411.18,582.61,413.24,582.06,414.94,580.98z"/>
	<path d="M474.79,588.38v0.49h-9.75l-9.99-14.5h-3.35v14.5h-8.48v-39.83h13.33c3.52,0,6.46,0.54,8.81,1.63
		c2.35,1.09,4.1,2.56,5.25,4.42c1.15,1.87,1.72,3.99,1.72,6.36c0,2.79-0.7,5.19-2.09,7.22c-1.39,2.03-3.44,3.53-6.14,4.52
		L474.79,588.38z M451.7,567.8h3.83c2.51,0,4.44-0.47,5.8-1.41c1.36-0.94,2.04-2.5,2.04-4.67c0-1.88-0.61-3.3-1.82-4.24
		c-1.21-0.94-2.91-1.41-5.08-1.41h-4.77V567.8z"/>
	<path d="M496.23,581.75h18.43v7.13h-26.9v-39.83h26.59v7.07h-18.12v8.97h15.66l-1,7.01h-14.66V581.75z"/>
</g>
<g>
	<path class="st1" d="M379.99,371.64c-0.8,2.2-2.1,4.44-3.9,6.74l-77.42-77.43c-0.5-0.49-1-0.95-1.51-1.37l-0.08-0.07
		c-1.84-1.51-3.79-2.58-5.86-3.19c-2.66-0.8-5-0.19-7.02,1.83l-14.47,14.47c-4.03,4.02-3.73,8.34,0.87,12.95l76.22,76.22
		c1.06,1.06,1.61,2.52,1.66,4.38c0,0.07-0.01,0.15-0.01,0.22l-39.06,39.06c-0.11,0.04-0.22,0.09-0.34,0.13
		c-0.97,0.34-1.96,0.6-2.95,0.8c-3.24,0.65-6.55,0.36-9.93-0.86c-3.38-1.22-6.88-3.64-10.48-7.24l-29.53-29.53l2.83-2.84
		c-0.98,0.98-2.35,1.52-4.05,1.62l-37.91-37.91c-0.55-0.55-1.1-0.89-1.66-1.02c-0.05-0.15-0.11-0.3-0.16-0.45
		c-0.34-0.97-0.6-1.96-0.8-2.94c-0.65-3.24-0.36-6.56,0.86-9.94c0.89-2.46,2.42-4.99,4.57-7.57l77.5,77.5c0.49,0.49,1,0.95,1.5,1.38
		l0.08,0.06c1.84,1.52,3.8,2.59,5.86,3.2c2.67,0.79,5.01,0.18,7.02-1.83l14.47-14.47c4.03-4.03,3.74-8.35-0.87-12.96l-76.22-76.22
		c-1.06-1.05-1.61-2.52-1.66-4.38c0-0.07,0.01-0.14,0.01-0.21l39.07-39.07c0.11-0.04,0.22-0.09,0.33-0.13
		c0.97-0.33,1.96-0.6,2.95-0.8c3.24-0.65,6.55-0.35,9.94,0.87c3.38,1.22,6.87,3.63,10.47,7.23l29.54,29.54l-0.57,0.57l-3.02,3.02
		c1.06-1.05,2.52-1.61,4.38-1.66c0.38-0.01,0.78,0.01,1.18,0.04l37.15,37.15c0.11,0.11,0.22,0.19,0.33,0.29
		c0.27,0.64,0.53,1.28,0.75,1.93c0.34,0.97,0.6,1.96,0.8,2.95C381.5,364.94,381.21,368.26,379.99,371.64z"/>
	<path class="st1" d="M246.08,321.24l-23.56,23.56c-0.9,0.9-1.73,1.79-2.48,2.68l26.13-26.13L246.08,321.24z"/>
	<path class="st1" d="M349.95,404.92l22.81-22.81c0.92-0.92,1.75-1.83,2.52-2.73l-25.43,25.43L349.95,404.92z"/>
	<path class="st2" d="M418.31,360.86c-0.48-4.54-1.53-9.01-3.13-13.4c-0.38-1.07-0.81-2.11-1.26-3.13c-1.9-4.25-4.44-8.18-7.6-11.81
		c-0.07,0.72-0.47,1.46-1.22,2.21l-21.81,21.8c-1.33,1.34-2.66,1.42-3.99,0.29c0.27,0.64,0.53,1.28,0.75,1.93
		c0.34,0.97,0.6,1.96,0.8,2.95c0.65,3.24,0.36,6.56-0.86,9.94c-0.8,2.2-2.1,4.44-3.9,6.74l0.09,0.09l-0.91,0.91
		c-0.76,0.9-1.6,1.81-2.51,2.73l-22.81,22.81l26.24,26.24l-1.52,1.52c0.04,0.03,0.07,0.06,0.11,0.09l28.84-28.85
		c3.24-3.23,5.96-6.83,8.2-10.8c0.31-0.55,0.61-1.12,0.91-1.68c0.68-1.35,1.33-2.73,1.9-4.15c1.91-4.65,3.13-9.44,3.68-14.36
		c0.19-1.78,0.3-3.58,0.32-5.39C418.66,365.29,418.55,363.07,418.31,360.86z"/>
	<path class="st2" d="M220.22,295l-28.2,27.24c-3.24,3.23-5.96,6.83-8.2,10.8c-0.31,0.55-0.61,1.12-0.91,1.68
		c-0.68,1.35-1.33,2.73-1.9,4.15c-1.91,4.65-3.13,9.44-3.68,14.36c-0.19,1.78-0.3,3.58-0.32,5.39c-0.02,2.25,0.09,4.47,0.33,6.68
		c0.48,4.54,1.53,9.01,3.13,13.4c0.38,1.07,0.81,2.11,1.26,3.13c1.9,4.25,4.44,8.18,7.6,11.81c0.07-0.72,0.47-1.46,1.22-2.21
		l21.81-21.8c1.33-1.34,2.66-1.42,3.99-0.29c-0.27-0.64-0.53-1.28-0.75-1.93c-0.34-0.97-0.6-1.96-0.8-2.95
		c-0.65-3.24-0.36-6.56,0.86-9.94c0.8-2.2,2.1-4.44,3.9-6.74l-0.09-0.09l0.91-0.91c0.76-0.9,1.6-1.81,2.51-2.73l22.81-22.81
		L219.46,295"/>
	<path d="M346.82,401.79c1.05,1.05,1.61,2.52,1.66,4.38l1.36-1.36L346.82,401.79z"/>
	<path d="M349.95,404.92l-1.48,1.47c0-0.07,0.01-0.15,0.01-0.22l1.36-1.36L349.95,404.92z"/>
	<path d="M256.18,408.75l-0.18,0.18l-1.37-1.37c0.12,0,0.22-0.02,0.33-0.03L256.18,408.75z"/>
	<path d="M376.19,431.16l-38.22,38.22c-3.39,3.38-7.06,6.15-11.03,8.34c-1.12,0.62-2.27,1.2-3.44,1.73
		c-1.03,0.45-2.07,0.88-3.13,1.26c-4.4,1.6-8.87,2.64-13.4,3.13c-2.21,0.24-4.44,0.35-6.68,0.33c-1.82-0.02-3.61-0.13-5.39-0.32
		c-4.92-0.55-9.71-1.78-14.37-3.68c-1.42-0.58-2.8-1.22-4.14-1.9c-0.57-0.3-1.13-0.6-1.69-0.91c-3.96-2.24-7.56-4.96-10.8-8.2
		l-73.2-73.2c-1.44-1.44-1.36-2.95,0.22-4.53l21.81-21.81c0.89-0.89,1.78-1.23,2.66-1.02c0.56,0.13,1.11,0.47,1.66,1.02l37.91,37.91
		c-0.11,0.01-0.21,0.03-0.33,0.03l1.37,1.37l0.18-0.18l29.53,29.53c3.6,3.6,7.1,6.02,10.48,7.24c3.38,1.22,6.69,1.51,9.93,0.86
		c0.99-0.2,1.98-0.46,2.95-0.8c0.12-0.04,0.23-0.09,0.34-0.13l39.06-39.06l1.48-1.47L376.19,431.16z"/>
	<path d="M297.16,299.58l-0.08-0.06c-1.84-1.52-3.8-2.59-5.87-3.2c-2.66-0.79-5-0.18-7.02,1.83l-14.47,14.47
		c-4.03,4.03-3.74,8.35,0.87,12.96l76.22,76.22c0,0,0,0,0,0l3.02,3.02l25.43-25.43c0.28-0.34,0.55-0.67,0.81-1.01l-77.42-77.42
		C298.17,300.46,297.66,300,297.16,299.58z"/>
	<path d="M376.18,378.47l-0.1-0.1c-0.26,0.33-0.53,0.67-0.81,1.01L376.18,378.47z"/>
	<polygon points="346.82,401.79 346.82,401.79 349.84,404.81 	"/>
	<path class="st0" d="M249.2,324.36c-1.05-1.05-1.61-2.52-1.66-4.38l-1.36,1.36L249.2,324.36z"/>
	<path class="st0" d="M247.55,319.77c0,0.07-0.01,0.14-0.01,0.21l-1.36,1.36l-0.1-0.1L247.55,319.77z"/>
	<path class="st0" d="M406.32,332.52c-0.07,0.72-0.47,1.46-1.22,2.21l-21.81,21.8c-1.33,1.34-2.66,1.42-3.99,0.29
		c-0.11-0.1-0.22-0.18-0.33-0.29l-68.66-68.66c-3.6-3.6-7.09-6.01-10.47-7.23c-3.39-1.22-6.7-1.52-9.94-0.87
		c-0.99,0.2-1.98,0.47-2.95,0.8c-0.11,0.04-0.22,0.09-0.33,0.13l-39.07,39.07l-1.47,1.47L219.83,295l38.23-38.22
		c3.08-3.09,6.41-5.66,9.98-7.75c1.45-0.86,2.95-1.64,4.48-2.33c1.03-0.45,2.07-0.88,3.14-1.26c4.39-1.6,8.86-2.64,13.4-3.13
		c2.2-0.24,4.43-0.35,6.68-0.33c1.81,0.03,3.6,0.13,5.39,0.33c4.92,0.54,9.71,1.77,14.36,3.67c1.42,0.58,2.8,1.22,4.14,1.91
		c0.57,0.29,1.13,0.6,1.69,0.9c3.96,2.24,7.57,4.97,10.8,8.2l73.2,73.2C406.08,330.95,406.4,331.73,406.32,332.52z"/>
	<path class="st0" d="M298.86,426.58l0.08,0.06c1.84,1.52,3.8,2.59,5.87,3.2c2.66,0.79,5,0.18,7.02-1.83l14.47-14.47
		c4.03-4.03,3.74-8.35-0.87-12.96l-76.22-76.22l-3.02-3.02l-26.13,26.13c-0.06,0.08-0.12,0.15-0.18,0.23l77.5,77.5
		C297.85,425.69,298.35,426.15,298.86,426.58z"/>
	<path class="st0" d="M219.84,347.68l0.02,0.02c0.06-0.08,0.12-0.15,0.18-0.23L219.84,347.68z"/>
	<path class="st0" d="M190.7,395.96c-1.44-1.44-1.36-2.95,0.22-4.53l21.81-21.81c0.89-0.89,1.78-1.23,2.66-1.02
		c-0.05-0.15-0.11-0.3-0.16-0.45c-0.34-0.97-0.6-1.96-0.8-2.94c-0.65-3.24-0.36-6.56,0.86-9.94c0.89-2.46,2.42-4.99,4.57-7.57
		l-0.02-0.02l0.2-0.2c0.76-0.89,1.58-1.78,2.48-2.68l-2.63,2.63l-26.25-26.24l0.17-0.17c-0.03-0.03-0.07-0.07-0.1-0.1l-2.06,2.06
		c-3.24,3.24-5.97,6.84-8.2,10.8c-0.31,0.56-0.61,1.12-0.91,1.69c-0.69,1.34-1.33,2.72-1.91,4.14c-1.9,4.66-3.12,9.45-3.67,14.37
		c-0.19,1.78-0.3,3.57-0.32,5.39c-0.02,2.24,0.08,4.47,0.33,6.68c0.48,4.54,1.52,9,3.12,13.4c0.39,1.06,0.81,2.1,1.27,3.13
		c2.37,5.3,5.73,10.13,10.07,14.47l38.22,38.22l0.18-0.18L190.7,395.96z"/>
</g>
<rect class="st1" width="595.28" height="841.89"/>
</svg>
