<?xml version="1.0" encoding="utf-8"?>
<!-- Generator: Adobe Illustrator 23.0.3, SVG Export Plug-In . SVG Version: 6.00 Build 0)  -->
<svg version="1.1" id="Layer_1" xmlns="http://www.w3.org/2000/svg" xmlns:xlink="http://www.w3.org/1999/xlink" x="0px" y="0px"
	 viewBox="0 0 570.24 518.4" style="enable-background:new 0 0 570.24 518.4;" xml:space="preserve">
<style type="text/css">
	.st0{fill:none;}
	.st1{fill:#CB592A;}
	.st2{fill:none;stroke:#CC5A29;stroke-miterlimit:10;}
</style>
<g>
	<g>
		<path class="st0" d="M374.59,253.37c-0.8,2.2-2.1,4.44-3.9,6.74l-77.42-77.43c-0.5-0.49-1-0.95-1.51-1.37l-0.08-0.07
			c-1.84-1.51-3.79-2.58-5.86-3.19c-2.66-0.8-5-0.19-7.02,1.83l-14.47,14.47c-4.03,4.02-3.73,8.34,0.87,12.95l76.22,76.22
			c1.06,1.06,1.61,2.52,1.66,4.38c0,0.07-0.01,0.15-0.01,0.22l-39.06,39.06c-0.11,0.04-0.22,0.09-0.34,0.13
			c-0.97,0.34-1.96,0.6-2.95,0.8c-3.24,0.65-6.55,0.36-9.93-0.86c-3.38-1.22-6.88-3.64-10.48-7.24l-29.53-29.53l2.83-2.84
			c-0.98,0.98-2.35,1.52-4.05,1.62l-37.91-37.91c-0.55-0.55-1.1-0.89-1.66-1.02c-0.05-0.15-0.11-0.3-0.16-0.45
			c-0.34-0.97-0.6-1.96-0.8-2.94c-0.65-3.24-0.36-6.56,0.86-9.94c0.89-2.46,2.42-4.99,4.57-7.57l77.5,77.5
			c0.49,0.49,1,0.95,1.5,1.38l0.08,0.06c1.84,1.52,3.8,2.59,5.86,3.2c2.67,0.79,5.01,0.18,7.02-1.83l14.47-14.47
			c4.03-4.03,3.74-8.35-0.87-12.96l-76.22-76.22c-1.06-1.05-1.61-2.52-1.66-4.38c0-0.07,0.01-0.14,0.01-0.21l39.07-39.07
			c0.11-0.04,0.22-0.09,0.33-0.13c0.97-0.33,1.96-0.6,2.95-0.8c3.24-0.65,6.55-0.35,9.94,0.87c3.38,1.22,6.87,3.63,10.47,7.23
			l29.54,29.54l-0.57,0.57l-3.02,3.02c1.06-1.05,2.52-1.61,4.38-1.66c0.38-0.01,0.78,0.01,1.18,0.04l37.15,37.15
			c0.11,0.11,0.22,0.19,0.33,0.29c0.27,0.64,0.53,1.28,0.75,1.93c0.34,0.97,0.6,1.96,0.8,2.95
			C376.1,246.67,375.81,249.99,374.59,253.37z"/>
		<path class="st0" d="M240.68,202.97l-23.56,23.56c-0.9,0.9-1.73,1.79-2.48,2.68l26.13-26.13L240.68,202.97z"/>
		<path class="st0" d="M344.55,286.64l22.81-22.81c0.92-0.92,1.75-1.83,2.52-2.73l-25.43,25.43L344.55,286.64z"/>
		<path class="st2" d="M412.91,242.59c-0.48-4.54-1.53-9.01-3.13-13.4c-0.38-1.07-0.81-2.11-1.26-3.13
			c-1.9-4.25-4.44-8.18-7.6-11.81c-0.07,0.72-0.47,1.46-1.22,2.21l-21.81,21.8c-1.33,1.34-2.66,1.42-3.99,0.29
			c0.27,0.64,0.53,1.28,0.75,1.93c0.34,0.97,0.6,1.96,0.8,2.95c0.65,3.24,0.36,6.56-0.86,9.94c-0.8,2.2-2.1,4.44-3.9,6.74l0.09,0.09
			l-0.91,0.91c-0.76,0.9-1.6,1.81-2.51,2.73l-22.81,22.81l26.24,26.24l-1.52,1.52c0.04,0.03,0.07,0.06,0.11,0.09l28.84-28.85
			c3.24-3.23,5.96-6.83,8.2-10.8c0.31-0.55,0.61-1.12,0.91-1.68c0.68-1.35,1.33-2.73,1.9-4.15c1.91-4.65,3.13-9.44,3.68-14.36
			c0.19-1.78,0.3-3.58,0.32-5.39C413.26,247.01,413.15,244.8,412.91,242.59z"/>
		<path class="st2" d="M214.82,176.72l-28.2,27.24c-3.24,3.23-5.96,6.83-8.2,10.8c-0.31,0.55-0.61,1.12-0.91,1.68
			c-0.68,1.35-1.33,2.73-1.9,4.15c-1.91,4.65-3.13,9.44-3.68,14.36c-0.19,1.78-0.3,3.58-0.32,5.39c-0.02,2.25,0.09,4.47,0.33,6.68
			c0.48,4.54,1.53,9.01,3.13,13.4c0.38,1.07,0.81,2.11,1.26,3.13c1.9,4.25,4.44,8.18,7.6,11.81c0.07-0.72,0.47-1.46,1.22-2.21
			l21.81-21.8c1.33-1.34,2.66-1.42,3.99-0.29c-0.27-0.64-0.53-1.28-0.75-1.93c-0.34-0.97-0.6-1.96-0.8-2.95
			c-0.65-3.24-0.36-6.56,0.86-9.94c0.8-2.2,2.1-4.44,3.9-6.74l-0.09-0.09l0.91-0.91c0.76-0.9,1.6-1.81,2.51-2.73l22.81-22.81
			l-26.24-26.24"/>
		<path d="M341.42,283.52c1.05,1.05,1.61,2.52,1.66,4.38l1.36-1.36L341.42,283.52z"/>
		<path d="M344.55,286.64l-1.48,1.47c0-0.07,0.01-0.15,0.01-0.22l1.36-1.36L344.55,286.64z"/>
		<path d="M250.78,290.48l-0.18,0.18l-1.37-1.37c0.12,0,0.22-0.02,0.33-0.03L250.78,290.48z"/>
		<path d="M370.79,312.88l-38.22,38.22c-3.39,3.38-7.06,6.15-11.03,8.34c-1.12,0.62-2.27,1.2-3.44,1.73
			c-1.03,0.45-2.07,0.88-3.13,1.26c-4.4,1.6-8.87,2.64-13.4,3.13c-2.21,0.24-4.44,0.35-6.68,0.33c-1.82-0.02-3.61-0.13-5.39-0.32
			c-4.92-0.55-9.71-1.78-14.37-3.68c-1.42-0.58-2.8-1.22-4.14-1.9c-0.57-0.3-1.13-0.6-1.69-0.91c-3.96-2.24-7.56-4.96-10.8-8.2
			l-73.2-73.2c-1.44-1.44-1.36-2.95,0.22-4.53l21.81-21.81c0.89-0.89,1.78-1.23,2.66-1.02c0.56,0.13,1.11,0.47,1.66,1.02
			l37.91,37.91c-0.11,0.01-0.21,0.03-0.33,0.03l1.37,1.37l0.18-0.18L280.31,320c3.6,3.6,7.1,6.02,10.48,7.24
			c3.38,1.22,6.69,1.51,9.93,0.86c0.99-0.2,1.98-0.46,2.95-0.8c0.12-0.04,0.23-0.09,0.34-0.13l39.06-39.06l1.48-1.47L370.79,312.88z
			"/>
		<path d="M291.76,181.3l-0.08-0.06c-1.84-1.52-3.8-2.59-5.87-3.2c-2.66-0.79-5-0.18-7.02,1.83l-14.47,14.47
			c-4.03,4.03-3.74,8.35,0.87,12.96l76.22,76.22c0,0,0,0,0,0l3.02,3.02l25.43-25.43c0.28-0.34,0.55-0.67,0.81-1.01l-77.42-77.42
			C292.77,182.19,292.26,181.72,291.76,181.3z"/>
		<path d="M370.78,260.2l-0.1-0.1c-0.26,0.33-0.53,0.67-0.81,1.01L370.78,260.2z"/>
		<polygon points="341.42,283.52 341.42,283.52 344.44,286.54 		"/>
		<path class="st1" d="M243.8,206.09c-1.05-1.05-1.61-2.52-1.66-4.38l-1.36,1.36L243.8,206.09z"/>
		<path class="st1" d="M242.15,201.5c0,0.07-0.01,0.14-0.01,0.21l-1.36,1.36l-0.1-0.1L242.15,201.5z"/>
		<path class="st1" d="M400.92,214.25c-0.07,0.72-0.47,1.46-1.22,2.21l-21.81,21.8c-1.33,1.34-2.66,1.42-3.99,0.29
			c-0.11-0.1-0.22-0.18-0.33-0.29l-68.66-68.66c-3.6-3.6-7.09-6.01-10.47-7.23c-3.39-1.22-6.7-1.52-9.94-0.87
			c-0.99,0.2-1.98,0.47-2.95,0.8c-0.11,0.04-0.22,0.09-0.33,0.13l-39.07,39.07l-1.47,1.47l-26.25-26.24l38.23-38.22
			c3.08-3.09,6.41-5.66,9.98-7.75c1.45-0.86,2.95-1.64,4.48-2.33c1.03-0.45,2.07-0.88,3.14-1.26c4.39-1.6,8.86-2.64,13.4-3.13
			c2.2-0.24,4.43-0.35,6.68-0.33c1.81,0.03,3.6,0.13,5.39,0.33c4.92,0.54,9.71,1.77,14.36,3.67c1.42,0.58,2.8,1.22,4.14,1.91
			c0.57,0.29,1.13,0.6,1.69,0.9c3.96,2.24,7.57,4.97,10.8,8.2l73.2,73.2C400.68,212.68,401,213.46,400.92,214.25z"/>
		<path class="st1" d="M293.46,308.3l0.08,0.06c1.84,1.52,3.8,2.59,5.87,3.2c2.66,0.79,5,0.18,7.02-1.83l14.47-14.47
			c4.03-4.03,3.74-8.35-0.87-12.96l-76.22-76.22l-3.02-3.02l-26.13,26.13c-0.06,0.08-0.12,0.15-0.18,0.23l77.5,77.5
			C292.45,307.41,292.95,307.88,293.46,308.3z"/>
		<path class="st1" d="M214.44,229.41l0.02,0.02c0.06-0.08,0.12-0.15,0.18-0.23L214.44,229.41z"/>
		<path class="st1" d="M185.3,277.69c-1.44-1.44-1.36-2.95,0.22-4.53l21.81-21.81c0.89-0.89,1.78-1.23,2.66-1.02
			c-0.05-0.15-0.11-0.3-0.16-0.45c-0.34-0.97-0.6-1.96-0.8-2.94c-0.65-3.24-0.36-6.56,0.86-9.94c0.89-2.46,2.42-4.99,4.57-7.57
			l-0.02-0.02l0.2-0.2c0.76-0.89,1.58-1.78,2.48-2.68l-2.63,2.63l-26.25-26.24l0.17-0.17c-0.03-0.03-0.07-0.07-0.1-0.1l-2.06,2.06
			c-3.24,3.24-5.97,6.84-8.2,10.8c-0.31,0.56-0.61,1.12-0.91,1.69c-0.69,1.34-1.33,2.72-1.91,4.14c-1.9,4.66-3.12,9.45-3.67,14.37
			c-0.19,1.78-0.3,3.57-0.32,5.39c-0.02,2.24,0.08,4.47,0.33,6.68c0.48,4.54,1.52,9,3.12,13.4c0.39,1.06,0.81,2.1,1.27,3.13
			c2.37,5.3,5.73,10.13,10.07,14.47L224.25,317l0.18-0.18L185.3,277.69z"/>
	</g>
</g>
<rect class="st0" width="570.24" height="518.4"/>
</svg>
