<svg id="Layer_1" data-name="Layer 1" xmlns="http://www.w3.org/2000/svg" viewBox="0 0 164.62 106.1"><defs><style>.cls-1{fill:#fff;}</style></defs><path class="cls-1" d="M388.16,122.38a40.75,40.75,0,0,1-4.79,14,41.22,41.22,0,0,1-9.54,11.33,48.37,48.37,0,0,1-12.74,7.59,53.68,53.68,0,0,1-14.39,3.65,51.29,51.29,0,0,1-14.89-.47,40.7,40.7,0,0,1-14.05-5.29,33.6,33.6,0,0,1-6-4.71,30.6,30.6,0,0,1-4.71-6,32.22,32.22,0,0,1-3.11-7c-.38-1.22-.68-2.45-.94-3.71-.1-.64-.23-1.3-.32-1.91l0-.2-1-.11a67.94,67.94,0,0,0-9.28-.42,25.5,25.5,0,0,0-13,5,26,26,0,0,0-5,4.86,51.74,51.74,0,0,0-7.07,12.2q-2.79,6.94-5,21a42.81,42.81,0,0,1-3,10.71q3.27,3.18,4.91,3.74a11.61,11.61,0,0,0,3.42.62q6.67,0,9-16.6c.14-2.27.67-3.41,1.58-3.41a30.7,30.7,0,0,1,9.52-1.1c2.84.22,4.27.51,4.27.85v.61a37.6,37.6,0,0,0-6.83,11.72,35.73,35.73,0,0,1-2,4.29c.6.63,1.23,1.25,1.9,1.87a7.71,7.71,0,0,0,4.63,1.7,3.77,3.77,0,0,0,2.68-1.09q-.24-2.36-.36-5.74a30.7,30.7,0,0,1,2.44-10.73q3.63-6.84,5.49-6.83c0-.15.49-.23,1.46-.25a13.2,13.2,0,0,1,6.71,2.2,1.36,1.36,0,0,1,.25.73q0,.7-3.18,3.54-5.29,6.5-6.95,16.71v.24c.22,2.06.59,3.2,1.1,3.42q2.28,0,6-10.49,5.18-13,6.46-14.52a6.31,6.31,0,0,1,4.76-2.44q6.35.83,6.34,3.29,0,.34-3.78,4a25.16,25.16,0,0,0-3.78,6.95q-2.44,6.17-2.44,8.67v1c0,1.61.37,2.54,1.1,2.81q2.46,0,5.24-9.15,4.13-11.28,5.86-14.4,1.95-2.56,4.27-2.56h.73q1.5,0,6,1.95a1.74,1.74,0,0,1,.37,1.1v.25a34.52,34.52,0,0,1-2.93,2.92q-2.24,2-7.32,15.25a17.37,17.37,0,0,1-9.88,8.66h-2q-2.75,0-6.22-3.78-4.63,4.4-7.32,4.39a7.22,7.22,0,0,1-4.76-1.46,11.83,11.83,0,0,1-5.12,1.22h-1.1a9.81,9.81,0,0,1-9.15-5.25,2.92,2.92,0,0,1-.14-.31A14.54,14.54,0,0,1,269,193.06h-1.34q-6.9,0-10.25-5.12l-.49-.94q-5.92,6.85-16.16,6.85-10.8,0-15.86-9.88a19,19,0,0,1-1.34-7.2q0-9.21,9.27-14.39h.12v.12a18.23,18.23,0,0,0-3.54,10.25q0,7,6.59,10.61a8.82,8.82,0,0,0,3.17.86h1.47q3.31,0,6.83-3.79,2.6-2.84,4.27-10.37,2.81-16.16,4.15-21.71c1.29-5.32,2.32-7.87,4.51-10.86,4.9-6.69,12.36-9.41,15.57-10.58a39.55,39.55,0,0,1,7.54-1.94,49.2,49.2,0,0,1,9-.44,83.92,83.92,0,0,1,9.74,1c6.67,1,13.58,2.66,20.46,4.27s13.72,3.21,20.22,4.2c3.25.5,6.4.84,9.41,1a62.28,62.28,0,0,0,8.47-.09,44.88,44.88,0,0,0,7.07-1.14,39.46,39.46,0,0,0,5.26-1.74c1.3-.55,2.25-1.21,3-1.44-27.26,8.2-36.91-12.77-69.2-11.9-.49,0-1.45,0-1.8-.65a3.92,3.92,0,0,1,.08-3.09,23.43,23.43,0,0,1,5.08-8.12,24.53,24.53,0,0,1,5-4,26.87,26.87,0,0,1,5.79-2.54,30.89,30.89,0,0,1,12.37-1c.51,0,1,.13,1.54.2s1,.18,1.49.27c1,.2,2,.43,3,.72a44.31,44.31,0,0,1,5.74,2.12,77.13,77.13,0,0,1,10.53,6c3.34,2.23,6.61,4.55,9.91,6.78A53.84,53.84,0,0,0,376,121.12a18.68,18.68,0,0,0,5.65,1.37l.95,0a12.62,12.62,0,0,0,4.68-.87h0a.67.67,0,0,1,.85.41A.89.89,0,0,1,388.16,122.38Z" transform="translate(-223.54 -99.04)"/><path class="cls-1" d="M278.74,198.06a3.22,3.22,0,0,0-3.17-2.19h-.24a4.7,4.7,0,0,0-3.91,2.19h-.12v-.36q-1-3.3-3.9-3.3h-1.1q-5.37,2-5.37,6.47v.24c.3,2.69,1.61,4,3.9,4h.37a5.85,5.85,0,0,0,4.76-2.81h.24v.37a3.33,3.33,0,0,0,3.3,2.44h.85q4.63-1.68,4.63-5.49V199A2.09,2.09,0,0,0,278.74,198.06Z" transform="translate(-223.54 -99.04)"/><path class="cls-1" d="M363.13,163.11c4.15,0,6.22.36,6.22,1.1a1.87,1.87,0,0,1,.25.85c0,.47-.77,1.52-2.32,3.17q-.88,1.32-7.32,13.18a79,79,0,0,1-8.66,12Q342.42,203,330.07,203q-9.39-.65-9.39-1.95v-.73a2.92,2.92,0,0,1,.49-.61c1.48.08,2.58.12,3.29.12h.37a22.16,22.16,0,0,0,12.2-3.91,30.55,30.55,0,0,0,7.07-7.07A50.2,50.2,0,0,0,350,178.11a61.35,61.35,0,0,0,2.8-12.81q1.44-2.19,9.15-2.19Z" transform="translate(-223.54 -99.04)"/></svg>